<svg xmlns="http://www.w3.org/2000/svg" viewBox="0 0 720 720">
  <title>logo</title>
  <g id="logo" data-name="logo">
    <circle cx="360" cy="360" r="360" style="fill: #24242f"/>
    <g>
      <path d="M513,845.875a332.87582,332.87582,0,1,1,235.37793-97.49707A330.69419,330.69419,0,0,1,513,845.875Z" transform="translate(-153 -153)" style="fill: #fff"/>
      <path d="M513,180.25a331.70721,331.70721,0,1,1-129.52124,26.149A330.66735,330.66735,0,0,1,513,180.25m0-.25c-183.91083,0-333,149.08917-333,333S329.08917,846,513,846,846,696.91083,846,513,696.91083,180,513,180Z" transform="translate(-153 -153)"/>
    </g>
    <g>
      <path d="M657.5,359.5c58.42,41.69,90.22,98.77,89.36,99.46-.33.28-2.41-2.26-9.38-9.75h-.01c-3.57-3.64-31.75-32.45-34.97-35.71-17.03-17.26-37.45-30.94-45-36a322.43632,322.43632,0,0,0-72-36,296.05216,296.05216,0,0,0-73-9c-17.76.03-41.65.26-71,9-32.85,9.78-55.28,24.76-72,36a367.37467,367.37467,0,0,0-45,36c-8.58,7.98-22.49,21.69-35.98,35.71-8.34,8.68-9.22,9.88-9.38,9.75-.86-.7,30.83-57.99,89.36-99.46,35.11-24.88,65.52-33.89,73-36,29.27-8.26,53.36-8.47,71.5-8.5,18.79-.03,43.11.1,72.5,8.5C592.3,325.44,622.31,334.39,657.5,359.5Z" transform="translate(-153 -153)" style="fill: #24242f"/>
      <path d="M729.5,594.03c1.49,1.2-23.92,46.92-72,83.98-26.09,20.11-49.03,30-55,32.49a233.87924,233.87924,0,0,1-90,18c-46.3,0-80.14-13.74-90-18-25.53-11.03-42.42-24.15-53-32.49-47.67-37.57-73.46-82.8-72-83.98.84-.68,10.96,13.09,36,36.47,13.58,12.68,23.13,21.59,36,30.72a231.02549,231.02549,0,0,0,72,33.59c30.22,8.23,54.87,8.39,72,8.39s41.78-.16,72-8.39a231.02549,231.02549,0,0,0,72-33.59c12.87-9.13,22.42-18.04,36-30.72C718.6,607.07,728.64,593.35,729.5,594.03Z" transform="translate(-153 -153)" style="fill: #24242f"/>
      <path d="M512.72,674.5a275.10049,275.10049,0,0,1-71.22-9,284.192,284.192,0,0,1-81-36,289.90554,289.90554,0,0,1-54-45h413c-10.47,9.59-38.88,34.83-72,54a268.15882,268.15882,0,0,1-42.92,20.52c-6.17,2.29-12.85,4.48-20.08,6.48A251.59315,251.59315,0,0,1,512.72,674.5Z" transform="translate(-153 -153)" style="fill: #dfdfdf"/>
      <path d="M801,522.5c-10.82,9.08-26.14,21.58-45,35.87-1.03.77-21.96,16.51-37,26.9-20.28,14-68.07,46.98-135,62.76A341.32311,341.32311,0,0,1,513,657a341.10226,341.10226,0,0,1-71.12-9.03c-67.05-15.9-114.92-49.13-135.24-63.24-15.06-10.46-36.03-26.31-37.06-27.1-18.9-14.39-34.24-26.99-45.08-36.13a448.2113,448.2113,0,0,0,45-27c14.09-9.61,20.97-15.48,36-27,22.71-17.41,41.48-31.95,63-45,17.35-10.53,43.72-26.26,81-36A262.92741,262.92741,0,0,1,513,378a260.23136,260.23136,0,0,1,62.5,8.5c37.06,9.74,63.27,25.47,81.25,36.44,21.74,13.26,40.7,28.01,63.11,45.25,15.05,11.59,21.95,17.49,36.06,27.16A449.1836,449.1836,0,0,0,801,522.5Z" transform="translate(-153 -153)" style="fill: #24242f"/>
      <path d="M513.5,378.5" transform="translate(-153 -153)" style="fill: none;stroke: #000;stroke-miterlimit: 10"/>
      <rect x="282.5" y="305.5" width="64" height="128" style="fill: #fff"/>
      <rect x="374.5" y="305.5" width="64" height="128" style="fill: #fff"/>
      <g>
        <path d="M377.5,548.5c10.37,36.97,41.65,68.67,45,72-13.91-4.61-56.11-19.41-90-45-12.59-9.51-24.01-20.38-24.01-20.38l.05-.04c17.45-23.06,41.42-41.05,64.22-56.55C372.5,500.88,371.17,525.92,377.5,548.5Z" transform="translate(-153 -153)" style="fill: #fff"/>
        <path d="M404.5,431.5a117.58419,117.58419,0,0,0-27,45,112.98251,112.98251,0,0,0-4.29,18.5s-.25,1.75-.45,3.53c-22.8,15.5-46.77,33.49-64.22,56.55l-.05.04A276.3998,276.3998,0,0,1,278.5,521.5,517.79152,517.79152,0,0,1,404.5,431.5Z" transform="translate(-153 -153)" style="fill: #dfdfdf"/>
      </g>
      <path d="M368.5,503.5" transform="translate(-153 -153)" style="fill: none;stroke: #000;stroke-miterlimit: 10"/>
      <g>
        <path d="M741.5,521.5a272.3756,272.3756,0,0,1-28.85,33.63l-.04-.05c-16.79-23.06-39.84-41.05-61.77-56.54v-.02c-.19-1.77-.44-3.52-.44-3.52a116.103,116.103,0,0,0-4.12-18.5,118.42988,118.42988,0,0,0-25.97-45A498.73864,498.73864,0,0,1,741.5,521.5Z" transform="translate(-153 -153)" style="fill: #dfdfdf"/>
        <path d="M712.61,555.08l.04.05a268.94507,268.94507,0,0,1-23.09,20.37,263.41192,263.41192,0,0,1-86.56,45c3.51-3.65,33.3-35.19,43.28-72,6.09-22.44,4.86-47.03,4.56-49.96C672.77,514.03,695.82,532.02,712.61,555.08Z" transform="translate(-153 -153)" style="fill: #fff"/>
      </g>
    </g>
  </g>
</svg>
